<?xml version="1.0" encoding="UTF-8"?><svg xmlns="http://www.w3.org/2000/svg" id="uuid-1cbd6580-3d81-4a10-b662-5ccbb609f8ca" data-name="Layer_1" viewBox="0 0 400 400"><path d="M400,358.64v-4.07c-20.2,4.51-40.4,9.02-60.63,13.54-3.9-10.3-9.1-19.73-15.87-28.41,22.12-17.7,44.14-35.31,66.15-52.92-.06-.09-.13-.18-.19-.27-23.91,15.41-47.82,30.82-71.83,46.3-6.84-7.28-14.47-13.46-23.07-18.57,11.8-21.18,23.53-42.25,35.26-63.31l-.32-.19c-12.98,20.37-25.97,40.74-39.02,61.21-8.88-4.69-18.19-7.98-28.15-9.91,2.19-28.94,4.38-57.8,6.57-86.66-.11-.01-.23-.03-.34-.04-4.95,28.46-9.91,56.92-14.8,85.02-7.79.19-15.37.37-23.24.55-.03-.14-.16-.66-.29-1.18-2.7-10.96-5.42-21.92-8.07-32.89-.18-.75-.06-1.69.21-2.42,1.16-3.09,2.39-6.16,3.69-9.2.48-1.13.56-2.15.26-3.35-9.11-36.83-18.18-73.66-27.25-110.49-.16-.63-.31-1.26-.48-1.96.57-.18.98-.33,1.41-.44,16.28-4.08,32.55-8.16,48.83-12.24,1.21-.3,2.8-.31,3.51-1.09.6-.67.34-2.28.17-3.43-.21-1.45-.71-2.85-1.11-4.27-1.76-6.31-3.53-12.62-5.24-18.95-.09-.34.31-1.01.67-1.23.59-.36,1.31-.55,2-.69,6.46-1.33,12.92-2.67,19.4-3.92,3.3-.64,3.95-.16,5.61,3.1,2.09,4.09,4.26,8.15,6.52,12.45.14-.02.62-.1,1.1-.19,8.33-1.6,16.62-3.41,24.99-4.75,6.05-.96,12.2-1.24,18.29-1.93,4.97-.56,9.93-1.3,14.9-1.91,3.61-.44,7.22-.87,10.84-1.17,3.66-.31,7.34-.46,11.01-.69,3.52-.22,7.05-.57,10.57-.64,4.93-.1,9.86.05,14.79,0,.56,0,1.12-.61,1.67-.93-.52-.72-.91-1.85-1.59-2.06-1.31-.41-2.79-.28-4.19-.4-4.9-.44-9.8-.94-14.7-1.32-5.71-.45-11.43-.98-17.15-1.17-7.12-.24-14.25-.16-21.37-.23-4.97-.05-9.94-.15-14.91-.17-3.92-.01-7.83.1-11.75.08-.43,0-1.09-.45-1.25-.85-1.74-4.41-3.3-8.89-5.13-13.25-.93-2.22-2.27-4.27-3.53-6.34-.24-.4-.96-.78-1.43-.74-2.82.21-5.65.4-8.44.86-5.21.86-10.37,1.93-15.57,2.86-5.74,1.02-11.5,1.95-17.25,2.95-6.35,1.11-12.65,2.48-19.03,3.33-15.06,2.02-29.6,6.33-44.33,9.77-.24.06-.49.08-.86.13-11.46-23.14-22.91-46.28-34.37-69.42-.08.02-.16.05-.24.07.61,25.82,1.21,51.64,1.82,77.51-.63.16-1.12.28-1.61.4-25.42,6.28-50.85,12.56-76.27,18.83-8,1.97-16.01,3.87-24.02,5.81-.69.17-1.38.36-2.06.57-1.4.43-1.86.13-2.28-1.28-1.06-3.57-.25-3.17-3.83-2.32-4.3,1.02-8.59,2.12-12.88,3.18-2.11.52-2.13.52-1.59,2.71,3.29,13.38,6.58,26.76,9.88,40.14,4.53,18.41,9.08,36.82,13.58,55.24,2.72,11.11,5.38,22.24,8.01,33.37.3,1.29.72,1.65,2.05,1.31,4.82-1.26,9.67-2.43,14.52-3.57,1.16-.27,1.63-.65,1.3-1.95-.51-2.03-.29-2.25,1.68-2.74,12.05-2.97,24.09-5.95,36.14-8.92.39-.1.78-.19,1.41-.35-.16-.67-.3-1.24-.44-1.8-2.56-9.92-2.08-19.86.16-29.73.58-2.57,2.2-4.9,2.95-7.45,1.74-5.89,5.68-10.36,9.26-15.08.33-.44.75-.83,1.2-1.16,3.75-2.79,7.47-5.63,11.3-8.31,1.3-.91,3.01-1.25,4.32-2.15,2.69-1.84,5.86-2.08,8.85-2.88,4.86-1.29,9.76-2.43,14.84-3.68.18.72.33,1.34.48,1.96,7.57,30.71,15.13,61.42,22.74,92.12.22.89.85,1.82,1.55,2.43,2.37,2.07,4.88,3.99,7.3,6.01.44.37.91.87,1.05,1.4,2.93,11.74,5.82,23.5,8.71,35.25.05.19.03.39.02.27-6.52,3.2-12.87,6.33-19.5,9.59-17.31-22.51-34.87-45.35-52.43-68.18-.1.06-.19.13-.29.19,15.27,24.42,30.55,48.84,45.88,73.35-8.29,6.5-15.32,14.05-21.25,22.75-21.17-12.12-42.25-24.2-63.33-36.27-.07.1-.13.21-.2.31,20.27,13.26,40.54,26.53,60.95,39.88-.29.52-.54.99-.81,1.46-4.48,7.57-7.93,15.58-10.3,24.04-.37,1.31-.89,1.61-2.2,1.49-27.55-2.51-55.1-4.97-82.65-7.44-.54-.05-1.07-.08-1.64.19,27.95,5.42,55.9,10.84,84,16.28-.98,5.54-1.5,11.08-1.6,16.64h28.83c-.16-4.85.34-9.7,1.16-14.54,3.47-20.38,13.41-36.79,30.71-48.4,3.38-2.27,7.11-4.03,10.85-6.12,5.7,23.11,11.36,46.1,17.02,69.06h20.28c-6.03-24.48-12.07-48.97-18.12-73.52,17.98-1.32,33.98,3.59,48.1,14.51,14.06,10.87,22.91,25.22,27.51,42.39,9.77-2.41,19.52-4.81,29.36-7.24-.08-.54-.16-1.07-.28-1.86,19.46-5.21,38.93-10.42,58.4-15.64Z"/></svg>